<svg class="w-6 h-6" xmlns="http://www.w3.org/2000/svg" width="32" height="32" viewBox="-4 -4 40 40"><path data-color="color-2" fill="none" stroke="#000000" stroke-width="2.4" stroke-linecap="square" stroke-miterlimit="10" d="M30,26.587 c0-1.684-1.045-3.188-2.629-3.76C25.044,21.986,21.206,21,16,21s-9.044,0.986-11.371,1.827C3.045,23.399,2,24.903,2,26.587V31h28 V26.587z" stroke-linejoin="miter"></path> <path fill="none" stroke="#000000" stroke-width="2.4" stroke-linecap="square" stroke-miterlimit="10" d="M16,17L16,17 c-3.866,0-7-3.134-7-7V8c0-3.866,3.134-7,7-7h0c3.866,0,7,3.134,7,7v2C23,13.866,19.866,17,16,17z" stroke-linejoin="miter"></path></svg>