<svg class="w-6 h-6" xmlns="http://www.w3.org/2000/svg" width="32" height="32" viewBox="-4 -4 40 40"><polyline fill="none" stroke="#000000" stroke-width="2.4" stroke-linecap="square" stroke-miterlimit="10" points="15,23 1,23 1,1 31,1 31,15 " stroke-linejoin="miter"></polyline> <circle fill="none" stroke="#000000" stroke-width="2.4" stroke-linecap="square" stroke-miterlimit="10" cx="16" cy="12" r="3" stroke-linejoin="miter"></circle> <path fill="none" stroke="#000000" stroke-width="2.4" stroke-linecap="square" stroke-miterlimit="10" d="M27,13V9 c-2.259,0-4-1.741-4-4H9c0,2.259-1.741,4-4,4v6c2.259,0,4,1.741,4,4h6" stroke-linejoin="miter"></path> <path data-cap="butt" data-color="color-2" fill="none" stroke="#000000" stroke-width="2.4" stroke-miterlimit="10" d="M19,20v4c0,1.657,2.686,3,6,3 s6-1.343,6-3v-4" stroke-linejoin="miter" stroke-linecap="butt"></path> <path data-cap="butt" data-color="color-2" fill="none" stroke="#000000" stroke-width="2.4" stroke-miterlimit="10" d="M19,24v4c0,1.657,2.686,3,6,3 s6-1.343,6-3v-4" stroke-linejoin="miter" stroke-linecap="butt"></path> <ellipse data-color="color-2" fill="none" stroke="#000000" stroke-width="2.4" stroke-linecap="square" stroke-miterlimit="10" cx="25" cy="20" rx="6" ry="3" stroke-linejoin="miter"></ellipse></svg>